<?xml version="1.0" encoding="UTF-8"?>
<!-- Generator: Adobe Illustrator 27.0.1, SVG Export Plug-In . SVG Version: 6.00 Build 0)  -->
<svg xmlns="http://www.w3.org/2000/svg" xmlns:xlink="http://www.w3.org/1999/xlink" version="1.1" id="Layer_1" x="0px" y="0px" viewBox="0 0 245 49" style="enable-background:new 0 0 245 49;" xml:space="preserve">
<style type="text/css">
	.st0{fill:#FFFFFF;}
</style>
<g>
	<path class="st0" d="M-0.02,24.9h7.39c0.45,3.71,3.17,5.19,7.06,5.19c3.56,0,6.09-1.28,6.09-4.25c0-2.16-1.36-3.23-3.95-3.77   l-6.22-1.41c-6.8-1.61-9.46-5.32-9.46-10.04c0-6.6,5.44-10.38,13.54-10.38c8.55,0,13.41,4.25,13.54,11.66H21.1   c-0.52-3.84-2.98-5.12-6.61-5.12c-3.69,0-5.57,1.28-5.57,3.71c0,2.02,1.36,3.3,4.08,3.84l6.41,1.48c5.31,1.28,9.65,3.7,9.65,9.84   c0,7.75-6.87,10.98-14.77,10.98C5.68,36.63,0.05,32.79-0.02,24.9"></path>
	<path class="st0" d="M49.55,29.42c4.67,0,9.01-3.43,9.01-10.98S54.22,7.45,49.55,7.45c-4.54,0-8.88,3.43-8.88,10.98   S45.02,29.42,49.55,29.42 M32.77,0.92h8.29v5.05c1.62-3.3,5.51-5.73,10.43-5.73c7.26,0,14.84,5.39,14.84,18.19   S58.75,36.63,51.5,36.63c-4.92,0-8.81-2.42-10.43-5.73v17.86h-8.29V0.92z"></path>
	<path class="st0" d="M70.42,0.92h8.29v8.35h0.19c1.1-4.72,4.28-8.76,9.98-8.76c0.78,0,1.68,0.07,2.59,0.34v7.28   c-0.97-0.14-1.75-0.2-2.59-0.2c-5.57,0-10.17,3.51-10.17,11.72v16.31h-8.29V0.92z"></path>
	<path class="st0" d="M109.95,29.49c4.27,0,7.45-2.56,7.84-7.68l0.07-20.89h8.29l-0.07,35.04h-8.29v-7.21h-0.26   c-0.65,3.03-3.89,7.88-11.01,7.88c-6.61,0-11.73-4.18-11.66-13.68V0.92h8.29l-0.06,20.01C103.08,26.66,105.48,29.49,109.95,29.49"></path>
	<path class="st0" d="M130.23,18.5c0-12.94,8.36-18.26,16.78-18.26c5.9,0,13.86,2.49,15.1,13.81h-7.52   c-0.84-4.72-3.82-6.54-7.65-6.54c-5.77,0-8.94,4.38-8.94,10.98c0,6.6,3.18,10.85,8.94,10.85c3.95,0,6.8-1.95,7.65-6.6h7.52   c-1.04,11.25-9.14,13.88-15.1,13.88C138.59,36.63,130.23,31.44,130.23,18.5"></path>
	<path class="st0" d="M190.11,15.4c-0.2-4.92-2.66-8.56-8.1-8.56c-4.86,0-7.9,2.83-8.49,8.56H190.11z M165.62,18.37   c0-12.94,7.71-18.12,16.52-18.12c8.68,0,15.81,4.99,15.81,17.79c0,1.21-0.07,1.89-0.19,2.63h-24.3c0.52,6.54,3.69,9.37,9.01,9.37   c4.21,0,6.67-1.68,7.65-5.05h7.39c-1.82,7.95-7.71,11.66-15.23,11.66C173.52,36.63,165.62,31.44,165.62,18.37"></path>
	<path class="st0" d="M201.32,24.9h7.39c0.45,3.71,3.17,5.19,7.06,5.19c3.56,0,6.09-1.28,6.09-4.25c0-2.16-1.36-3.23-3.95-3.77   l-6.22-1.41c-6.8-1.61-9.46-5.32-9.46-10.04c0-6.6,5.44-10.38,13.54-10.38c8.55,0,13.41,4.25,13.54,11.66h-6.87   c-0.52-3.84-2.98-5.12-6.61-5.12c-3.69,0-5.57,1.28-5.57,3.71c0,2.02,1.36,3.3,4.08,3.84l6.42,1.48c5.31,1.28,9.65,3.7,9.65,9.84   c0,7.75-6.87,10.98-14.77,10.98C207.03,36.63,201.39,32.79,201.32,24.9"></path>
	<path class="st0" d="M239.56,25.28c-3.01,0-5.45,2.54-5.45,5.67c0,3.13,2.44,5.67,5.45,5.67c3.01,0,5.45-2.54,5.45-5.67   c0-0.04-0.01-0.08-0.01-0.12v-5.55H239.56z"></path>
</g>
</svg>
